#N canvas 654 145 450 300 10;
#X obj 34 22 inlet;
#X obj 34 56 unpack f f f f f f f f;
#X obj 34 85 * 16383;
#X obj 52 112 * 16383;
#X obj 70 140 * 16383;
#X obj 89 168 * 16383;
#X obj 107 86 * 16383;
#X obj 126 113 * 16383;
#X obj 144 141 * 16383;
#X obj 163 169 * 16383;
#X obj 34 240 pack f f f f f f f f;
#X obj 34 276 outlet;
#X connect 0 0 1 0;
#X connect 1 0 2 0;
#X connect 1 1 3 0;
#X connect 1 2 4 0;
#X connect 1 3 5 0;
#X connect 1 4 6 0;
#X connect 1 5 7 0;
#X connect 1 6 8 0;
#X connect 1 7 9 0;
#X connect 2 0 10 0;
#X connect 3 0 10 1;
#X connect 4 0 10 2;
#X connect 5 0 10 3;
#X connect 6 0 10 4;
#X connect 7 0 10 5;
#X connect 8 0 10 6;
#X connect 9 0 10 7;
#X connect 10 0 11 0;
