#N canvas 44 79 651 443 10;
#X obj 36 72 inlet;
#X obj 230 38 inlet;
#X obj 254 190 bng 15 250 50 0 empty empty empty 17 7 0 10 -262144
-1 -1;
#X obj 270 190 bng 15 250 50 0 empty empty empty 17 7 0 10 -262144
-1 -1;
#X obj 286 190 bng 15 250 50 0 empty empty empty 17 7 0 10 -262144
-1 -1;
#X obj 302 190 bng 15 250 50 0 empty empty empty 17 7 0 10 -262144
-1 -1;
#X obj 254 152 select 0 1 2 3 4 5 6 7;
#X obj 318 190 bng 15 250 50 0 empty empty empty 17 7 0 10 -262144
-1 -1;
#X obj 334 190 bng 15 250 50 0 empty empty empty 17 7 0 10 -262144
-1 -1;
#X obj 350 190 bng 15 250 50 0 empty empty empty 17 7 0 10 -262144
-1 -1;
#X obj 366 190 bng 15 250 50 0 empty empty empty 17 7 0 10 -262144
-1 -1;
#X obj 179 121 bng 15 250 50 0 empty empty empty 17 7 0 10 -262144
-1 -1;
#X obj 38 302 spigot;
#X obj 106 303 spigot;
#X obj 178 309 spigot;
#X obj 253 309 spigot;
#X msg 179 147 0;
#X msg 72 266 1;
#X msg 139 268 1;
#X msg 211 278 1;
#X obj 254 119 int;
#X obj 230 76 t b f;
#X msg 286 274 1;
#X msg 356 279 1;
#X obj 323 311 spigot;
#X obj 393 310 spigot;
#X obj 468 310 spigot;
#X msg 426 279 1;
#X msg 501 275 1;
#X msg 571 280 1;
#X obj 538 312 spigot;
#X obj 35 367 outlet;
#X obj 104 369 outlet;
#X obj 174 370 outlet;
#X obj 252 370 outlet;
#X obj 323 370 outlet;
#X obj 395 372 outlet;
#X obj 467 368 outlet;
#X obj 538 367 outlet;
#X connect 0 0 12 0;
#X connect 0 0 13 0;
#X connect 0 0 14 0;
#X connect 0 0 24 0;
#X connect 0 0 25 0;
#X connect 0 0 26 0;
#X connect 0 0 30 0;
#X connect 0 0 15 0;
#X connect 1 0 21 0;
#X connect 2 0 17 0;
#X connect 3 0 18 0;
#X connect 4 0 19 0;
#X connect 5 0 22 0;
#X connect 6 0 2 0;
#X connect 6 1 3 0;
#X connect 6 2 4 0;
#X connect 6 3 5 0;
#X connect 6 4 7 0;
#X connect 6 5 8 0;
#X connect 6 6 9 0;
#X connect 6 7 10 0;
#X connect 7 0 23 0;
#X connect 8 0 27 0;
#X connect 9 0 28 0;
#X connect 10 0 29 0;
#X connect 11 0 16 0;
#X connect 11 0 20 0;
#X connect 12 0 31 0;
#X connect 13 0 32 0;
#X connect 14 0 33 0;
#X connect 15 0 34 0;
#X connect 16 0 12 1;
#X connect 16 0 13 1;
#X connect 16 0 14 1;
#X connect 16 0 15 1;
#X connect 16 0 24 1;
#X connect 16 0 25 1;
#X connect 16 0 26 1;
#X connect 16 0 30 1;
#X connect 17 0 12 1;
#X connect 18 0 13 1;
#X connect 19 0 14 1;
#X connect 20 0 6 0;
#X connect 21 0 11 0;
#X connect 21 1 20 1;
#X connect 22 0 15 1;
#X connect 23 0 24 1;
#X connect 24 0 35 0;
#X connect 25 0 36 0;
#X connect 26 0 37 0;
#X connect 27 0 25 1;
#X connect 28 0 26 1;
#X connect 29 0 30 1;
#X connect 30 0 38 0;
