#N canvas 962 359 527 546 10;
#X obj 149 258 + 1;
#X obj 262 268 + 1;
#X obj 262 135 + 0;
#X obj 149 228 *;
#X obj 262 226 *;
#X obj 262 196 float;
#X obj 149 195 float;
#X obj 350 56 * 0.25;
#X floatatom 350 84 5 0 0 0 - - -;
#X obj 350 106 float;
#X obj 350 133 t b f;
#X text 193 56 angle en Pi Rad;
#X text 399 54 long;
#X obj 149 124 + 4.71;
#X obj 149 164 sin;
#X obj 262 164 sin;
#X obj 148 86 * -1;
#X obj 262 373 t b f;
#X obj 149 438 pack f f;
#X obj 149 336 - \$2;
#X obj 149 286 * \$1;
#X obj 262 300 * \$1;
#X obj 262 334 - \$3;
#X text -42 107 \$2 = x coord center;
#X text -42 135 \$3 = y coord center;
#X obj 148 33 inlet;
#X obj 350 28 inlet;
#X obj 149 473 outlet;
#X text -41 81 \$1 = area size/2;
#X connect 0 0 20 0;
#X connect 1 0 21 0;
#X connect 2 0 15 0;
#X connect 3 0 0 0;
#X connect 4 0 1 0;
#X connect 5 0 4 0;
#X connect 6 0 3 0;
#X connect 7 0 8 0;
#X connect 8 0 9 0;
#X connect 9 0 10 0;
#X connect 10 0 5 0;
#X connect 10 0 6 0;
#X connect 10 1 4 1;
#X connect 10 1 3 1;
#X connect 13 0 14 0;
#X connect 14 0 6 0;
#X connect 15 0 5 0;
#X connect 16 0 13 0;
#X connect 16 0 2 0;
#X connect 17 0 18 0;
#X connect 17 1 18 1;
#X connect 18 0 27 0;
#X connect 19 0 18 0;
#X connect 20 0 19 0;
#X connect 21 0 22 0;
#X connect 22 0 17 0;
#X connect 25 0 16 0;
#X connect 26 0 7 0;
