#N canvas 248 207 1284 585 10;
#X obj 34 -283 gcanvas 150 150;
#X obj 37 -351 hsl 128 15 0 6.28 0 0 angle1 loop1 empty -2 -8 0 10
-262144 -1 -1 7812 1;
#X obj 184 -351 hsl 128 15 0.1 4 0 0 long1 loop2 empty -2 -8 0 10 -262144
-1 -1 10749 1;
#X obj 34 -329 AngleLongTocoord 75 75 75;
#X obj 34 -123 coordToAngleLongGcanvas2-abstract;
#X obj 34 -99 octofaune_spat_module_noaudio_nopack1;
#X obj 34 -76 octo_Vview2;
#X obj 34 106 octo_ctlsend_nopack 1 2 3 4 5 6 7 8;
#X obj 346 -282 gcanvas 150 150;
#X obj 349 -350 hsl 128 15 0 6.28 0 0 angle1 loop1 empty -2 -8 0 10
-262144 -1 -1 690 1;
#X obj 496 -350 hsl 128 15 0.1 4 0 0 long1 loop2 empty -2 -8 0 10 -262144
-1 -1 6936 1;
#X obj 346 -328 AngleLongTocoord 75 75 75;
#X obj 346 -98 octofaune_spat_module_noaudio_nopack1;
#X obj 346 -75 octo_Vview2;
#X obj 647 -284 gcanvas 150 150;
#X obj 650 -352 hsl 128 15 0 6.28 0 0 angle1 loop1 empty -2 -8 0 10
-262144 -1 -1 4565 1;
#X obj 797 -352 hsl 128 15 0.1 4 0 0 long1 loop2 empty -2 -8 0 10 -262144
-1 -1 9160 1;
#X obj 647 -330 AngleLongTocoord 75 75 75;
#X obj 647 -100 octofaune_spat_module_noaudio_nopack1;
#X obj 647 -77 octo_Vview2;
#X obj 950 -282 gcanvas 150 150;
#X obj 953 -350 hsl 128 15 0 6.28 0 0 angle1 loop1 empty -2 -8 0 10
-262144 -1 -1 10177 1;
#X obj 1100 -350 hsl 128 15 0.1 4 0 0 long1 loop2 empty -2 -8 0 10
-262144 -1 -1 9457 1;
#X obj 950 -328 AngleLongTocoord 75 75 75;
#X obj 950 -98 octofaune_spat_module_noaudio_nopack1;
#X obj 950 -75 octo_Vview2;
#X obj 346 107 octo_ctlsend_nopack 11 12 13 14 15 16 17 18;
#X obj 647 105 octo_ctlsend_nopack 21 22 23 24 25 26 27 28;
#X obj 950 107 octo_ctlsend_nopack 31 33 34 35 36 37 38 39;
#X obj 346 -122 coordToAngleLongGcanvas2-abstract;
#X obj 647 -124 coordToAngleLongGcanvas2-abstract;
#X obj 950 -122 coordToAngleLongGcanvas2-abstract;
#X obj 34 -306 trick1;
#X obj 346 -305 trick1;
#X obj 647 -307 trick1;
#X obj 950 -305 trick1;
#X connect 0 0 4 0;
#X connect 0 1 4 1;
#X connect 1 0 3 0;
#X connect 1 0 5 0;
#X connect 2 0 3 1;
#X connect 2 0 5 1;
#X connect 3 0 32 0;
#X connect 4 0 1 0;
#X connect 4 1 2 0;
#X connect 5 0 6 0;
#X connect 5 1 6 1;
#X connect 5 2 6 2;
#X connect 5 3 6 3;
#X connect 5 4 6 4;
#X connect 5 5 6 5;
#X connect 5 6 6 6;
#X connect 5 7 6 7;
#X connect 6 0 7 0;
#X connect 6 1 7 1;
#X connect 6 2 7 2;
#X connect 6 3 7 3;
#X connect 6 4 7 4;
#X connect 6 5 7 5;
#X connect 6 6 7 6;
#X connect 6 7 7 7;
#X connect 8 0 29 0;
#X connect 8 1 29 1;
#X connect 9 0 11 0;
#X connect 9 0 12 0;
#X connect 10 0 11 1;
#X connect 10 0 12 1;
#X connect 11 0 33 0;
#X connect 12 0 13 0;
#X connect 12 1 13 1;
#X connect 12 2 13 2;
#X connect 12 3 13 3;
#X connect 12 4 13 4;
#X connect 12 5 13 5;
#X connect 12 6 13 6;
#X connect 12 7 13 7;
#X connect 13 0 26 0;
#X connect 13 1 26 1;
#X connect 13 2 26 2;
#X connect 13 3 26 3;
#X connect 13 4 26 4;
#X connect 13 5 26 5;
#X connect 13 6 26 6;
#X connect 13 7 26 7;
#X connect 14 0 30 0;
#X connect 14 1 30 1;
#X connect 15 0 17 0;
#X connect 15 0 18 0;
#X connect 16 0 17 1;
#X connect 16 0 18 1;
#X connect 17 0 34 0;
#X connect 18 0 19 0;
#X connect 18 1 19 1;
#X connect 18 2 19 2;
#X connect 18 3 19 3;
#X connect 18 4 19 4;
#X connect 18 5 19 5;
#X connect 18 6 19 6;
#X connect 18 7 19 7;
#X connect 19 0 27 0;
#X connect 19 1 27 1;
#X connect 19 2 27 2;
#X connect 19 3 27 3;
#X connect 19 4 27 4;
#X connect 19 5 27 5;
#X connect 19 6 27 6;
#X connect 19 7 27 7;
#X connect 20 0 31 0;
#X connect 20 1 31 1;
#X connect 21 0 23 0;
#X connect 21 0 24 0;
#X connect 22 0 23 1;
#X connect 22 0 24 1;
#X connect 23 0 35 0;
#X connect 24 0 25 0;
#X connect 24 1 25 1;
#X connect 24 2 25 2;
#X connect 24 3 25 3;
#X connect 24 4 25 4;
#X connect 24 5 25 5;
#X connect 24 6 25 6;
#X connect 24 7 25 7;
#X connect 25 0 28 0;
#X connect 25 1 28 1;
#X connect 25 2 28 2;
#X connect 25 3 28 3;
#X connect 25 4 28 4;
#X connect 25 5 28 5;
#X connect 25 6 28 6;
#X connect 25 7 28 7;
#X connect 29 0 9 0;
#X connect 29 1 10 0;
#X connect 30 0 15 0;
#X connect 30 1 16 0;
#X connect 31 0 21 0;
#X connect 31 1 22 0;
#X connect 32 0 0 0;
#X connect 33 0 8 0;
#X connect 34 0 14 0;
#X connect 35 0 20 0;
