#N struct 1042-grob-09 float x float y float x_barre float y_barre
;
#N struct 1068-grob-09 float x float y float x_barre float y_barre
;
#N struct 1069-grob-09 float x float y float x_barre float y_barre
;
#N struct 1070-grob-09 float x float y float x_barre float y_barre
;
#N struct 1071-grob-09 float x float y float x_barre float y_barre
;
#N struct 1072-grob-09 float x float y float x_barre float y_barre
;
#N struct 1073-grob-09 float x float y float x_barre float y_barre
;
#N struct 1074-grob-09 float x float y float x_barre float y_barre
;
#N canvas 714 47 835 1038 10;
#X declare -lib mrpeach;
#X obj 49 171 hsl 128 15 0 6.28 0 0 empty empty empty -2 -8 0 10 -262144
-1 -1 7690 1;
#X obj 250 166 hsl 128 15 0.1 4 0 0 empty empty empty -2 -8 0 10 -262144
-1 -1 6449 1;
#X msg 248 72 1;
#X obj 248 44 loadbang;
#X msg 183 71 0;
#X text 688 256 X 2;
#X text 535 318 3 X;
#X text 740 322 X 4;
#X text 545 399 5 X;
#X text 734 400 X 6;
#X text 599 457 7 X;
#X text 687 459 X 8;
#X text 626 282 X 10 X sub;
#X text 641 342 X 9 top;
#X text 571 213 Plane Speaker Implant;
#X text 556 255 (ref)1 X;
#X obj 44 645 octo_Vview;
#X obj 43 910 8select-abstract;
#X obj 136 883 hradio 15 1 0 8 empty empty empty 0 -8 0 10 -262144
-1 -1 0;
#X obj 136 838 loadbang;
#X obj 311 8 import mrpeach;
#X obj 46 -3 udpreceive 9001;
#X obj 46 29 unpackOSC;
#X obj 46 56 routeOSC /3/xy;
#X obj 46 81 unpack f f;
#X obj 46 127 coordToAngleLong-abstract;
#X obj 46 104 - 0.5;
#X obj 193 102 - 0.5;
#X obj 260 133 * 8;
#X obj 43 933 send un;
#X obj 56 954 send deux;
#X obj 69 975 send trois;
#X obj 82 996 send quatre;
#X obj 96 933 send cinqu;
#X obj 119 954 send six;
#X obj 138 975 send sept;
#X obj 157 996 send huit;
#N canvas 910 189 932 498 visualise 0;
#X obj 26 -363 octo_ctlsend_pack 1 2 3 4 5 6 7 8;
#X obj 25 -554 receive un;
#X obj 252 -531 XY-perso2-abstract;
#X obj 240 -555 receive deux;
#X obj 457 -555 receive trois;
#X obj 672 -556 receive quatre;
#X obj 28 -313 receive cinqu;
#X obj 243 -314 receive six;
#X obj 460 -314 receive sept;
#X obj 675 -315 receive huit;
#X obj 241 -341 octo_ctlsend_pack 11 12 13 14 15 16 17 18;
#X obj 458 -364 octo_ctlsend_pack 21 22 23 24 25 26 27 28;
#X obj 673 -340 octo_ctlsend_pack 31 33 34 35 36 37 38 39;
#X obj 29 -122 octo_ctlsend_pack 41 42 43 44 45 46 47 48;
#X obj 244 -98 octo_ctlsend_pack 51 52 53 54 55 56 57 58;
#X obj 461 -123 octo_ctlsend_pack 61 62 63 64 65 66 67 68;
#X obj 676 -99 octo_ctlsend_pack 71 72 73 74 75 76 77 78;
#X obj 37 -530 XY-perso2-abstract;
#X obj 469 -531 XY-perso2-abstract;
#X obj 684 -532 XY-perso2-abstract;
#X obj 40 -289 XY-perso2-abstract;
#X obj 255 -290 XY-perso2-abstract;
#X obj 472 -290 XY-perso2-abstract;
#X obj 687 -291 XY-perso2-abstract;
#X connect 1 0 0 0;
#X connect 1 0 17 0;
#X connect 3 0 2 0;
#X connect 3 0 10 0;
#X connect 4 0 11 0;
#X connect 4 0 18 0;
#X connect 5 0 12 0;
#X connect 5 0 19 0;
#X connect 6 0 13 0;
#X connect 6 0 20 0;
#X connect 7 0 14 0;
#X connect 7 0 21 0;
#X connect 8 0 15 0;
#X connect 8 0 22 0;
#X connect 9 0 16 0;
#X connect 9 0 23 0;
#X restore 310 973 pd visualise;
#X text 309 950 visualiser la spat des différentes pistes;
#X msg 136 861 0;
#X obj 451 131 line;
#X msg 546 97 0;
#X obj 451 64 t b b;
#X msg 502 11 stop;
#X msg 451 10 bang;
#X obj 605 144 line;
#X obj 605 40 metro 7000;
#X msg 605 98 4 3500;
#X msg 698 106 1 3500;
#X obj 698 81 delay 3500;
#X obj 451 40 metro 6000;
#X obj 311 48 hsl 128 15 500 10000 0 0 empty empty empty -2 -8 0 10
-262144 -1 -1 3000 1;
#X msg 451 98 6.28 \$1;
#X obj 339 98 int;
#X msg 628 0 stop;
#X obj 44 340 gcanvas 200 200;
#X msg 197 293 size 200 200;
#X msg 71 269 reset;
#X obj 44 241 t a b;
#X msg 198 267 color grey 0;
#X msg 44 295 line red 100 100 \$1 \$2;
#X obj 44 214 AngleLongTocoord 100 100 100;
#X obj 44 571 coordToAngleLongGcanvas-abstract;
#X obj 44 610 octofaune_spat_module_noaudio_pack2;
#X connect 0 0 61 0;
#X connect 0 0 63 0;
#X connect 1 0 61 1;
#X connect 1 0 63 1;
#X connect 2 0 1 0;
#X connect 3 0 2 0;
#X connect 3 0 4 0;
#X connect 4 0 0 0;
#X connect 16 0 17 0;
#X connect 17 0 29 0;
#X connect 17 1 30 0;
#X connect 17 2 31 0;
#X connect 17 3 32 0;
#X connect 17 4 33 0;
#X connect 17 5 34 0;
#X connect 17 6 35 0;
#X connect 17 7 36 0;
#X connect 18 0 17 1;
#X connect 19 0 39 0;
#X connect 21 0 22 0;
#X connect 22 0 23 0;
#X connect 23 0 24 0;
#X connect 24 0 26 0;
#X connect 24 1 27 0;
#X connect 25 0 0 0;
#X connect 25 1 28 0;
#X connect 26 0 25 0;
#X connect 27 0 25 1;
#X connect 28 0 1 0;
#X connect 39 0 18 0;
#X connect 40 0 0 0;
#X connect 41 0 40 0;
#X connect 42 0 53 0;
#X connect 42 1 41 0;
#X connect 43 0 46 0;
#X connect 43 0 50 0;
#X connect 44 0 46 0;
#X connect 44 0 50 0;
#X connect 45 0 1 0;
#X connect 46 0 47 0;
#X connect 46 0 49 0;
#X connect 47 0 45 0;
#X connect 48 0 45 0;
#X connect 49 0 48 0;
#X connect 50 0 42 0;
#X connect 51 0 50 1;
#X connect 51 0 53 0;
#X connect 52 0 40 0;
#X connect 53 0 52 0;
#X connect 54 0 46 0;
#X connect 55 0 62 0;
#X connect 55 1 62 1;
#X connect 56 0 55 0;
#X connect 57 0 55 0;
#X connect 58 0 60 0;
#X connect 58 1 57 0;
#X connect 59 0 55 0;
#X connect 60 0 55 0;
#X connect 61 0 58 0;
#X connect 62 0 0 0;
#X connect 62 1 1 0;
#X connect 63 0 16 0;
