#N struct 1007-grob-09 float x float y float x_barre float y_barre
;
#N struct 1008-grob-09 float x float y float x_barre float y_barre
;
#N struct 1009-grob-09 float x float y float x_barre float y_barre
;
#N struct 1010-grob-09 float x float y float x_barre float y_barre
;
#N struct 1011-grob-09 float x float y float x_barre float y_barre
;
#N struct 1012-grob-09 float x float y float x_barre float y_barre
;
#N struct 1013-grob-09 float x float y float x_barre float y_barre
;
#N struct 1014-grob-09 float x float y float x_barre float y_barre
;
#N struct 1015-grob-09 float x float y float x_barre float y_barre
;
#N canvas 44 103 838 630 10;
#X declare -lib mrpeach;
#X obj 49 156 hsl 128 15 0 6.28 0 0 empty empty empty -2 -8 0 10 -262144
-1 -1 0 1;
#X obj 250 166 hsl 128 15 0.1 4 0 0 empty empty empty -2 -8 0 10 -262144
-1 -1 10200 1;
#X msg 248 72 1;
#X obj 248 44 loadbang;
#X msg 183 71 0;
#X text 688 256 X 2;
#X text 535 318 3 X;
#X text 740 322 X 4;
#X text 545 399 5 X;
#X text 734 400 X 6;
#X text 599 457 7 X;
#X text 687 459 X 8;
#X text 626 282 X 10 X sub;
#X text 641 342 X 9 top;
#X text 571 213 Plane Speaker Implant;
#X text 556 255 (ref)1 X;
#X obj 46 234 octo_Vview;
#X obj 45 499 8select-abstract;
#X obj 138 472 hradio 15 1 0 8 empty empty empty 0 -8 0 10 -262144
-1 -1 0;
#X obj 138 427 loadbang;
#X obj 437 24 import mrpeach;
#X obj 46 -3 udpreceive 9001;
#X obj 46 29 unpackOSC;
#X obj 46 56 routeOSC /3/xy;
#X obj 46 81 unpack f f;
#X obj 46 127 coordToAngleLong-abstract;
#X obj 46 104 - 0.5;
#X obj 193 102 - 0.5;
#X obj 260 133 * 8;
#X obj 335 234 XY-perso2-abstract;
#X obj 45 522 send un;
#X obj 58 543 send deux;
#X obj 71 564 send trois;
#X obj 84 585 send quatre;
#X obj 98 522 send cinqu;
#X obj 121 543 send six;
#X obj 140 564 send sept;
#X obj 159 585 send huit;
#N canvas 324 47 931 482 visualise 1;
#X obj 37 -530 XY-perso2-abstract;
#X obj 25 -554 receive un;
#X obj 252 -531 XY-perso2-abstract;
#X obj 240 -555 receive deux;
#X obj 469 -531 XY-perso2-abstract;
#X obj 684 -532 XY-perso2-abstract;
#X obj 457 -555 receive trois;
#X obj 672 -556 receive quatre;
#X obj 40 -310 XY-perso2-abstract;
#X obj 255 -311 XY-perso2-abstract;
#X obj 472 -311 XY-perso2-abstract;
#X obj 687 -312 XY-perso2-abstract;
#X obj 28 -334 receive cinqu;
#X obj 243 -335 receive six;
#X obj 460 -335 receive sept;
#X obj 675 -336 receive huit;
#X obj 26 -363 NRPNmixsend 1;
#X obj 241 -364 NRPNmixsend 2;
#X obj 458 -364 NRPNmixsend 3;
#X obj 673 -365 NRPNmixsend 4;
#X obj 29 -143 NRPNmixsend 5;
#X obj 244 -144 NRPNmixsend 6;
#X obj 460 -144 NRPNmixsend 7;
#X obj 676 -145 NRPNmixsend 8;
#X connect 1 0 0 0;
#X connect 1 0 16 0;
#X connect 3 0 2 0;
#X connect 3 0 17 0;
#X connect 6 0 4 0;
#X connect 6 0 18 0;
#X connect 7 0 5 0;
#X connect 7 0 19 0;
#X connect 12 0 8 0;
#X connect 12 0 20 0;
#X connect 13 0 9 0;
#X connect 13 0 21 0;
#X connect 14 0 10 0;
#X connect 14 0 22 0;
#X connect 15 0 11 0;
#X connect 15 0 23 0;
#X restore 312 562 pd visualise;
#X text 311 539 visualiser la spat des différentes pistes;
#X msg 138 449 0;
#X floatatom 386 198 5 0 0 0 - - -;
#X obj 227 615;
#X obj 227 615;
#X obj 46 199 octofaune_spat_module_noaudio_pack;
#X connect 0 0 41 0;
#X connect 0 0 44 0;
#X connect 1 0 44 1;
#X connect 2 0 1 0;
#X connect 3 0 2 0;
#X connect 3 0 4 0;
#X connect 4 0 0 0;
#X connect 16 0 17 0;
#X connect 17 0 30 0;
#X connect 17 1 31 0;
#X connect 17 2 32 0;
#X connect 17 3 33 0;
#X connect 17 4 34 0;
#X connect 17 5 35 0;
#X connect 17 6 36 0;
#X connect 17 7 37 0;
#X connect 18 0 17 1;
#X connect 19 0 40 0;
#X connect 21 0 22 0;
#X connect 22 0 23 0;
#X connect 23 0 24 0;
#X connect 24 0 26 0;
#X connect 24 1 27 0;
#X connect 25 0 0 0;
#X connect 25 1 28 0;
#X connect 26 0 25 0;
#X connect 27 0 25 1;
#X connect 28 0 1 0;
#X connect 40 0 18 0;
#X connect 44 0 16 0;
#X connect 44 0 29 0;
