#N canvas 740 118 955 945 10;
#X obj 100 129 gcanvas 200 200;
#X msg 21 35 size 200 200;
#X msg 147 9 reset;
#X floatatom 224 415 5 0 0 0 - - -;
#X floatatom 320 410 5 0 0 0 - - -;
#X obj 193 628 pack f f;
#X obj 320 445 t b f;
#X obj -23 255 t a b;
#X obj 224 443 - 100;
#X obj 347 481 - 100;
#X obj 466 -4 inlet;
#X floatatom 599 381 5 0 0 0 - - -;
#X obj 599 325 + 1;
#X floatatom 688 390 5 0 0 0 - - -;
#X obj 688 334 + 1;
#X obj 688 201 + 0;
#X obj 599 295 *;
#X obj 688 292 *;
#X obj 688 262 float;
#X obj 599 262 float;
#X obj 795 138 * 0.25;
#X floatatom 795 166 5 0 0 0 - - -;
#X obj 795 188 float;
#X obj 795 215 t b f;
#X text 630 135 angle en Pi Rad;
#X text 808 110 long;
#X obj 606 63 hsl 128 15 0 6.28 0 0 empty empty empty -2 -8 0 10 -262144
-1 -1 0 1;
#X obj 786 40 hsl 128 15 0 4 0 0 empty empty empty -2 -8 0 10 -262144
-1 -1 2643 1;
#X obj 599 353 * 100;
#X obj 688 362 * 100;
#X obj 448 592 t b f;
#X obj 413 505 - 100;
#X obj 656 559 - 100;
#X obj 581 666 coordToAngleLong-abstract;
#X floatatom 379 677 5 0 0 0 - - -;
#X floatatom 292 698 5 0 0 0 - - -;
#X obj 393 745 * 0.04;
#X obj 328 747 * 0.04;
#X obj 575 190 + 4.71;
#X obj 599 231 sin;
#X obj 688 230 sin;
#X obj 508 118 * -1;
#X msg 203 16 color grey 0;
#X msg -73 182 line red 100 100 \$1 \$2;
#X obj 464 28 unpack f f f f f f f f f f;
#X obj 509 857 outlet;
#X obj 509 825 pack f f f f f f f f f f;
#X obj 539 750 t b f;
#X obj 573 775 t b f;
#X obj 605 751 t b f;
#X obj 639 776 t b f;
#X obj 667 747 t b f;
#X obj 701 772 t b f;
#X obj 732 746 t b f;
#X obj 757 781 t b f;
#X obj 788 755 t b f;
#X connect 0 0 3 0;
#X connect 0 1 4 0;
#X connect 1 0 0 0;
#X connect 2 0 0 0;
#X connect 3 0 8 0;
#X connect 4 0 6 0;
#X connect 5 0 7 0;
#X connect 6 0 5 0;
#X connect 6 1 9 0;
#X connect 7 0 43 0;
#X connect 7 1 2 0;
#X connect 8 0 5 0;
#X connect 8 0 35 0;
#X connect 9 0 5 1;
#X connect 9 0 34 0;
#X connect 10 0 44 0;
#X connect 11 0 31 0;
#X connect 12 0 28 0;
#X connect 13 0 32 0;
#X connect 14 0 29 0;
#X connect 15 0 40 0;
#X connect 16 0 12 0;
#X connect 17 0 14 0;
#X connect 18 0 17 0;
#X connect 19 0 16 0;
#X connect 20 0 21 0;
#X connect 21 0 22 0;
#X connect 22 0 23 0;
#X connect 23 0 18 0;
#X connect 23 0 19 0;
#X connect 23 1 17 1;
#X connect 23 1 16 1;
#X connect 26 0 41 0;
#X connect 26 0 54 0;
#X connect 27 0 20 0;
#X connect 27 0 55 0;
#X connect 28 0 11 0;
#X connect 29 0 13 0;
#X connect 30 0 5 0;
#X connect 30 1 5 1;
#X connect 31 0 5 0;
#X connect 32 0 30 0;
#X connect 33 0 26 0;
#X connect 33 1 27 0;
#X connect 34 0 36 0;
#X connect 35 0 37 0;
#X connect 36 0 33 1;
#X connect 37 0 33 0;
#X connect 38 0 39 0;
#X connect 39 0 19 0;
#X connect 40 0 18 0;
#X connect 41 0 38 0;
#X connect 41 0 15 0;
#X connect 42 0 0 0;
#X connect 43 0 0 0;
#X connect 44 0 46 0;
#X connect 44 1 47 0;
#X connect 44 2 48 0;
#X connect 44 3 49 0;
#X connect 44 4 50 0;
#X connect 44 5 51 0;
#X connect 44 6 52 0;
#X connect 44 7 53 0;
#X connect 44 8 26 0;
#X connect 44 9 27 0;
#X connect 46 0 45 0;
#X connect 47 0 46 0;
#X connect 47 1 46 1;
#X connect 48 0 46 0;
#X connect 48 1 46 2;
#X connect 49 0 46 0;
#X connect 49 1 46 3;
#X connect 50 0 46 0;
#X connect 50 1 46 4;
#X connect 51 0 46 0;
#X connect 51 1 46 5;
#X connect 52 0 46 0;
#X connect 52 1 46 6;
#X connect 53 0 46 0;
#X connect 53 1 46 7;
#X connect 54 0 46 0;
#X connect 54 1 46 8;
#X connect 55 0 46 0;
#X connect 55 1 46 9;
#X coords 0 -1 1 1 200 230 1 100 100;
