#N canvas 4 22 1280 752 10;
#X obj 479 -15 inlet;
#X obj -55 375 / 128;
#X obj -2 377 % 128;
#X obj -55 406 int;
#X obj -2 407 int;
#X obj -2 439 ctlout 98 12;
#X obj -55 465 ctlout 99 12;
#X obj -29 125 / 128;
#X obj 24 126 % 128;
#X obj -29 157 int;
#X obj 24 158 int;
#X obj -29 253 ctlout 6 12;
#X obj 24 229 ctlout 38 12;
#X obj -29 75 t f b;
#X obj 93 414 / 128;
#X obj 146 416 % 128;
#X obj 93 445 int;
#X obj 146 446 int;
#X obj 146 478 ctlout 98 12;
#X obj 93 504 ctlout 99 12;
#X obj 119 164 / 128;
#X obj 172 165 % 128;
#X obj 119 196 int;
#X obj 172 197 int;
#X obj 119 292 ctlout 6 12;
#X obj 172 268 ctlout 38 12;
#X obj 119 114 t f b;
#X obj 253 447 / 128;
#X obj 306 449 % 128;
#X obj 253 478 int;
#X obj 306 479 int;
#X obj 306 511 ctlout 98 12;
#X obj 253 537 ctlout 99 12;
#X obj 279 197 / 128;
#X obj 332 198 % 128;
#X obj 279 229 int;
#X obj 332 230 int;
#X obj 279 325 ctlout 6 12;
#X obj 332 301 ctlout 38 12;
#X obj 279 147 t f b;
#X obj 407 479 / 128;
#X obj 460 481 % 128;
#X obj 407 510 int;
#X obj 460 511 int;
#X obj 460 543 ctlout 98 12;
#X obj 407 569 ctlout 99 12;
#X obj 433 229 / 128;
#X obj 486 230 % 128;
#X obj 433 261 int;
#X obj 486 262 int;
#X obj 433 357 ctlout 6 12;
#X obj 486 333 ctlout 38 12;
#X obj 433 179 t f b;
#X floatatom 39 348 5 0 0 0 - - -;
#X floatatom 198 401 5 0 0 0 - - -;
#X floatatom 360 426 5 0 0 0 - - -;
#X floatatom 524 465 5 0 0 0 - - -;
#X obj -2 319 expr ( 64 * 0 ) + 10474 + ( \$1 - 1);
#X obj 146 359 expr ( 64 * 1 ) + 10474 + ( \$1 - 1);
#X obj 306 390 expr ( 64 * 2 ) + 10474 + ( \$1 - 1);
#X obj 460 423 expr ( 64 * 3 ) + 10474 + ( \$1 - 1);
#X obj 553 512 / 128;
#X obj 606 514 % 128;
#X obj 553 543 int;
#X obj 606 544 int;
#X obj 606 576 ctlout 98 12;
#X obj 553 602 ctlout 99 12;
#X obj 579 262 / 128;
#X obj 632 263 % 128;
#X obj 579 294 int;
#X obj 632 295 int;
#X obj 579 390 ctlout 6 12;
#X obj 632 366 ctlout 38 12;
#X obj 579 212 t f b;
#X obj 701 551 / 128;
#X obj 754 553 % 128;
#X obj 701 582 int;
#X obj 754 583 int;
#X obj 754 615 ctlout 98 12;
#X obj 701 641 ctlout 99 12;
#X obj 727 301 / 128;
#X obj 780 302 % 128;
#X obj 727 333 int;
#X obj 780 334 int;
#X obj 727 429 ctlout 6 12;
#X obj 780 405 ctlout 38 12;
#X obj 727 251 t f b;
#X obj 861 584 / 128;
#X obj 914 586 % 128;
#X obj 861 615 int;
#X obj 914 616 int;
#X obj 914 648 ctlout 98 12;
#X obj 861 674 ctlout 99 12;
#X obj 887 334 / 128;
#X obj 940 335 % 128;
#X obj 887 366 int;
#X obj 940 367 int;
#X obj 887 462 ctlout 6 12;
#X obj 940 438 ctlout 38 12;
#X obj 887 284 t f b;
#X obj 1015 616 / 128;
#X obj 1068 618 % 128;
#X obj 1015 647 int;
#X obj 1068 648 int;
#X obj 1068 680 ctlout 98 12;
#X obj 1015 706 ctlout 99 12;
#X obj 1041 366 / 128;
#X obj 1094 367 % 128;
#X obj 1041 398 int;
#X obj 1094 399 int;
#X obj 1041 494 ctlout 6 12;
#X obj 1094 470 ctlout 38 12;
#X obj 1041 316 t f b;
#X floatatom 647 485 5 0 0 0 - - -;
#X floatatom 806 538 5 0 0 0 - - -;
#X floatatom 968 563 5 0 0 0 - - -;
#X floatatom 1132 602 5 0 0 0 - - -;
#X obj 606 456 expr ( 64 * 4 ) + 10474 + ( \$1 - 1);
#X obj 754 496 expr ( 64 * 5 ) + 10474 + ( \$1 - 1);
#X obj 914 527 expr ( 64 * 6 ) + 10474 + ( \$1 - 1);
#X obj 1068 560 expr ( 64 * 7 ) + 10474 + ( \$1 - 1);
#X obj 479 34 unpack f f f f f f f f;
#X obj 479 9 8amp;
#X floatatom -40 226 5 0 0 0 - - -;
#X connect 0 0 122 0;
#X connect 1 0 3 0;
#X connect 2 0 4 0;
#X connect 3 0 6 0;
#X connect 4 0 5 0;
#X connect 7 0 9 0;
#X connect 8 0 10 0;
#X connect 9 0 11 0;
#X connect 9 0 123 0;
#X connect 10 0 12 0;
#X connect 13 0 7 0;
#X connect 13 0 8 0;
#X connect 13 1 57 0;
#X connect 14 0 16 0;
#X connect 15 0 17 0;
#X connect 16 0 19 0;
#X connect 17 0 18 0;
#X connect 20 0 22 0;
#X connect 21 0 23 0;
#X connect 22 0 24 0;
#X connect 23 0 25 0;
#X connect 26 0 20 0;
#X connect 26 0 21 0;
#X connect 26 1 58 0;
#X connect 27 0 29 0;
#X connect 28 0 30 0;
#X connect 29 0 32 0;
#X connect 30 0 31 0;
#X connect 33 0 35 0;
#X connect 34 0 36 0;
#X connect 35 0 37 0;
#X connect 36 0 38 0;
#X connect 39 0 33 0;
#X connect 39 0 34 0;
#X connect 39 1 59 0;
#X connect 40 0 42 0;
#X connect 41 0 43 0;
#X connect 42 0 45 0;
#X connect 43 0 44 0;
#X connect 46 0 48 0;
#X connect 47 0 49 0;
#X connect 48 0 50 0;
#X connect 49 0 51 0;
#X connect 52 0 46 0;
#X connect 52 0 47 0;
#X connect 52 1 60 0;
#X connect 57 0 2 0;
#X connect 57 0 1 0;
#X connect 57 0 53 0;
#X connect 58 0 15 0;
#X connect 58 0 14 0;
#X connect 58 0 54 0;
#X connect 59 0 28 0;
#X connect 59 0 27 0;
#X connect 59 0 55 0;
#X connect 60 0 41 0;
#X connect 60 0 40 0;
#X connect 60 0 56 0;
#X connect 61 0 63 0;
#X connect 62 0 64 0;
#X connect 63 0 66 0;
#X connect 64 0 65 0;
#X connect 67 0 69 0;
#X connect 68 0 70 0;
#X connect 69 0 71 0;
#X connect 70 0 72 0;
#X connect 73 0 67 0;
#X connect 73 0 68 0;
#X connect 73 1 117 0;
#X connect 74 0 76 0;
#X connect 75 0 77 0;
#X connect 76 0 79 0;
#X connect 77 0 78 0;
#X connect 80 0 82 0;
#X connect 81 0 83 0;
#X connect 82 0 84 0;
#X connect 83 0 85 0;
#X connect 86 0 80 0;
#X connect 86 0 81 0;
#X connect 86 1 118 0;
#X connect 87 0 89 0;
#X connect 88 0 90 0;
#X connect 89 0 92 0;
#X connect 90 0 91 0;
#X connect 93 0 95 0;
#X connect 94 0 96 0;
#X connect 95 0 97 0;
#X connect 96 0 98 0;
#X connect 99 0 93 0;
#X connect 99 0 94 0;
#X connect 99 1 119 0;
#X connect 100 0 102 0;
#X connect 101 0 103 0;
#X connect 102 0 105 0;
#X connect 103 0 104 0;
#X connect 106 0 108 0;
#X connect 107 0 109 0;
#X connect 108 0 110 0;
#X connect 109 0 111 0;
#X connect 112 0 106 0;
#X connect 112 0 107 0;
#X connect 112 1 120 0;
#X connect 117 0 62 0;
#X connect 117 0 61 0;
#X connect 117 0 113 0;
#X connect 118 0 75 0;
#X connect 118 0 74 0;
#X connect 118 0 114 0;
#X connect 119 0 88 0;
#X connect 119 0 87 0;
#X connect 119 0 115 0;
#X connect 120 0 101 0;
#X connect 120 0 100 0;
#X connect 120 0 116 0;
#X connect 121 0 13 0;
#X connect 121 1 26 0;
#X connect 121 2 52 0;
#X connect 121 3 86 0;
#X connect 121 4 112 0;
#X connect 121 5 99 0;
#X connect 121 6 73 0;
#X connect 121 7 39 0;
#X connect 122 0 121 0;
