#N canvas 417 77 1373 975 10;
#X obj 639 100 inlet;
#X obj 1111 90 inlet;
#X text 499 58 inlet float de 0 à 2Pi position du son sur le cerlce
(HSlider);
#X obj 1111 117 t b f;
#X text 962 51 inlet float de 0.1 à 4 diffusion du son aux HP adjacents
;
#X obj 209 279 float 1.57;
#X obj 639 131 t f b;
#X obj 82 307 expr ((((sin($f1 + $f2)+1)*0.5)*$f3)-$f3)+1;
#X obj 82 335 max 0;
#X obj 182 411 expr ((((sin($f1 + $f2)+1)*0.5)*$f3)-$f3)+1;
#X obj 182 439 max 0;
#X obj 270 507 expr ((((sin($f1 + $f2)+1)*0.5)*$f3)-$f3)+1;
#X obj 270 535 max 0;
#X obj 396 599 expr ((((sin($f1 + $f2)+1)*0.5)*$f3)-$f3)+1;
#X obj 396 627 max 0;
#X obj 309 383 float 0.79;
#X obj 397 479 float 0;
#X obj 523 571 float 5.5;
#X obj 707 243 float 4.71;
#X obj 849 349 float 3.93;
#X obj 996 448 float 3.14;
#X obj 1115 570 float 2.36;
#X obj 580 268 expr ((((sin($f1 + $f2)+1)*0.5)*$f3)-$f3)+1;
#X obj 580 296 max 0;
#X obj 722 373 expr ((((sin($f1 + $f2)+1)*0.5)*$f3)-$f3)+1;
#X obj 722 401 max 0;
#X obj 869 475 expr ((((sin($f1 + $f2)+1)*0.5)*$f3)-$f3)+1;
#X obj 869 503 max 0;
#X obj 988 598 expr ((((sin($f1 + $f2)+1)*0.5)*$f3)-$f3)+1;
#X obj 988 626 max 0;
#X obj 1043 145 s \$0-diff-bang;
#X obj 1150 145 s \$0-diff-float;
#X obj 568 167 s \$0-posi-float;
#X obj 685 166 s \$0-posi-bang;
#X obj 82 250 r \$0-diff-bang;
#X obj 182 356 r \$0-diff-bang;
#X obj 268 452 r \$0-diff-bang;
#X obj 270 479 r \$0-posi-float;
#X obj 398 456 r \$0-posi-bang;
#X obj 525 478 r \$0-diff-float;
#X obj 182 383 r \$0-posi-float;
#X obj 309 360 r \$0-posi-bang;
#X obj 437 382 r \$0-diff-float;
#X obj 82 277 r \$0-posi-float;
#X obj 209 254 r \$0-posi-bang;
#X obj 337 276 r \$0-diff-float;
#X obj 576 211 r \$0-diff-bang;
#X obj 580 238 r \$0-posi-float;
#X obj 707 215 r \$0-posi-bang;
#X obj 835 237 r \$0-diff-float;
#X obj 722 316 r \$0-diff-bang;
#X obj 722 343 r \$0-posi-float;
#X obj 849 320 r \$0-posi-bang;
#X obj 977 342 r \$0-diff-float;
#X obj 1124 442 r \$0-diff-float;
#X obj 996 422 r \$0-posi-bang;
#X obj 869 418 r \$0-diff-bang;
#X obj 869 445 r \$0-posi-float;
#X obj 988 568 r \$0-posi-float;
#X obj 988 541 r \$0-diff-bang;
#X obj 1115 545 r \$0-posi-bang;
#X obj 1243 567 r \$0-diff-float;
#X obj 396 543 r \$0-diff-bang;
#X obj 396 570 r \$0-posi-float;
#X obj 523 547 r \$0-posi-bang;
#X obj 651 569 r \$0-diff-float;
#X obj 82 368 outlet;
#X obj 568 135 - 1.17;
#X obj 182 475 outlet;
#X obj 270 563 outlet;
#X obj 396 662 outlet;
#X obj 581 323 outlet;
#X obj 723 435 outlet;
#X obj 870 544 outlet;
#X obj 988 665 outlet;
#X connect 0 0 6 0;
#X connect 1 0 3 0;
#X connect 3 0 30 0;
#X connect 3 1 31 0;
#X connect 5 0 7 1;
#X connect 6 0 67 0;
#X connect 6 1 33 0;
#X connect 7 0 8 0;
#X connect 8 0 66 0;
#X connect 9 0 10 0;
#X connect 10 0 68 0;
#X connect 11 0 12 0;
#X connect 12 0 69 0;
#X connect 13 0 14 0;
#X connect 14 0 70 0;
#X connect 15 0 9 1;
#X connect 16 0 11 1;
#X connect 17 0 13 1;
#X connect 18 0 22 1;
#X connect 19 0 24 1;
#X connect 20 0 26 1;
#X connect 21 0 28 1;
#X connect 22 0 23 0;
#X connect 23 0 71 0;
#X connect 24 0 25 0;
#X connect 25 0 72 0;
#X connect 26 0 27 0;
#X connect 27 0 73 0;
#X connect 28 0 29 0;
#X connect 29 0 74 0;
#X connect 34 0 7 0;
#X connect 35 0 9 0;
#X connect 36 0 11 0;
#X connect 37 0 11 0;
#X connect 38 0 16 0;
#X connect 39 0 11 2;
#X connect 40 0 9 0;
#X connect 41 0 15 0;
#X connect 42 0 9 2;
#X connect 43 0 7 0;
#X connect 44 0 5 0;
#X connect 45 0 7 2;
#X connect 46 0 22 0;
#X connect 47 0 22 0;
#X connect 48 0 18 0;
#X connect 49 0 22 2;
#X connect 50 0 24 0;
#X connect 51 0 24 0;
#X connect 52 0 19 0;
#X connect 53 0 24 2;
#X connect 54 0 26 2;
#X connect 55 0 20 0;
#X connect 56 0 26 0;
#X connect 57 0 26 0;
#X connect 58 0 28 0;
#X connect 59 0 28 0;
#X connect 60 0 21 0;
#X connect 61 0 28 2;
#X connect 62 0 13 0;
#X connect 63 0 13 0;
#X connect 64 0 17 0;
#X connect 65 0 13 2;
#X connect 67 0 32 0;
