#N canvas 547 449 448 301 10;
#X obj 40 40 inlet;
#X obj 323 205 * 127;
#X obj 243 206 * 127;
#X obj 78 208 * 127;
#X obj 160 206 * 127;
#X obj 268 144 * 127;
#X obj 187 145 * 127;
#X obj 26 142 * 127;
#X obj 107 143 * 127;
#X obj 40 73 unpack f f f f f f f f;
#X obj 26 170 ctlout \$1 12;
#X obj 107 170 ctlout \$2 12;
#X obj 187 170 ctlout \$3 12;
#X obj 268 170 ctlout \$4 12;
#X obj 78 234 ctlout \$5 12;
#X obj 160 233 ctlout \$6 12;
#X obj 243 234 ctlout \$7 12;
#X obj 323 234 ctlout \$8 12;
#X connect 0 0 9 0;
#X connect 1 0 17 0;
#X connect 2 0 16 0;
#X connect 3 0 14 0;
#X connect 4 0 15 0;
#X connect 5 0 13 0;
#X connect 6 0 12 0;
#X connect 7 0 10 0;
#X connect 8 0 11 0;
#X connect 9 0 2 0;
#X connect 9 1 3 0;
#X connect 9 2 6 0;
#X connect 9 3 7 0;
#X connect 9 4 8 0;
#X connect 9 5 5 0;
#X connect 9 6 4 0;
#X connect 9 7 1 0;
