#N canvas 0 22 311 223 10;
#X obj 35 30 inlet;
#X obj 43 168 outlet;
#X msg 67 100 reset;
#X obj 40 72 t a b;
#X msg 40 126 line red 75 75 \$1 \$2;
#X obj 192 111 loadbang;
#X msg 192 139 color grey 0;
#X connect 0 0 3 0;
#X connect 2 0 1 0;
#X connect 3 0 4 0;
#X connect 3 1 2 0;
#X connect 4 0 1 0;
#X connect 5 0 6 0;
#X connect 6 0 1 0;
