#N struct 1042-grob-09 float x float y float x_barre float y_barre
;
#N canvas 943 369 925 646 12;
#X msg 777 36 clear;
#X obj 629 231 pointer;
#X text 742 4 Initialization;
#X obj 372 464 pointer;
#X floatatom 163 390 5 0 0 2 x - -;
#X obj 579 83 t b b b;
#X obj 547 216 int 0;
#X obj 207 117 sin;
#X floatatom 207 267 5 0 0 0 - - -;
#X obj 207 211 + 1;
#X obj 296 116 sin;
#X floatatom 296 276 5 0 0 0 - - -;
#X obj 296 220 + 1;
#X obj 296 87 + 0;
#X obj 207 181 *;
#X obj 296 178 *;
#X obj 296 148 float;
#X obj 207 148 float;
#X obj 403 24 * 0.25;
#X obj 629 174 makefilename pd-%s;
#X msg 629 201 traverse \$1 \, bang;
#X obj 586 278 append \$0-grob-09 x y;
#N canvas 491 388 616 289 grob-09 0;
#X text 52 22 We only added "float x" and "float y" coordinates:;
#X text 36 98 Position inside the struct definition does not matter
\, names however do matter here: Always use "x" and "y" for coordinates!
;
#X obj 62 58 struct \$0-grob-09 float x float y float x_barre float
y_barre;
#X obj 71 224 drawpolygon 0 5 75 75 x_barre y_barre;
#X restore 511 -55 pd grob-09;
#X obj 372 409 makefilename pd-%s;
#X msg 372 438 traverse \$1 \, next;
#X obj 159 443 t f b;
#X obj 159 494 set \$0-grob-09 x_barre y_barre;
#N canvas 627 148 462 490 \$0-paint 0;
#X scalar 1042-grob-09 0 0 83.0358 129.015 \;;
#X coords 0 150 150 0 150 150 2 0 0;
#X restore 5 5 pd \$0-paint;
#X obj 629 150 symbol \$0-paint;
#X obj 777 62 s pd-\$0-paint;
#X obj 372 379 symbol \$0-paint;
#X obj 5 5 cnv 15 150 150 empty empty empty 20 12 0 14 -204786 -66577
0;
#X msg 579 57 bang;
#X floatatom 403 52 5 0 0 0 - - -;
#X obj 207 239 * 75;
#X obj 296 248 * 75;
#X obj 207 84 + 4.71;
#X obj 579 26 loadbang;
#X obj 242 378 t b f;
#X obj 403 74 float;
#X obj 403 101 t b f;
#X text 238 21 angle en Pi Rad;
#X text 416 -4 long;
#X obj 48 -41 unpack f f f f f f f f f f;
#X obj 48 -68 inlet;
#X obj 207 45 + 0;
#X connect 0 0 29 0;
#X connect 1 0 21 2;
#X connect 3 0 26 2;
#X connect 4 0 25 0;
#X connect 5 0 6 0;
#X connect 5 1 28 0;
#X connect 5 2 0 0;
#X connect 6 0 21 0;
#X connect 6 0 21 1;
#X connect 7 0 17 0;
#X connect 8 0 4 0;
#X connect 9 0 34 0;
#X connect 10 0 16 0;
#X connect 11 0 38 0;
#X connect 12 0 35 0;
#X connect 13 0 10 0;
#X connect 14 0 9 0;
#X connect 15 0 12 0;
#X connect 16 0 15 0;
#X connect 17 0 14 0;
#X connect 18 0 33 0;
#X connect 19 0 20 0;
#X connect 20 0 1 0;
#X connect 23 0 24 0;
#X connect 24 0 3 0;
#X connect 25 0 26 0;
#X connect 25 1 30 0;
#X connect 28 0 19 0;
#X connect 30 0 23 0;
#X connect 32 0 5 0;
#X connect 33 0 39 0;
#X connect 34 0 8 0;
#X connect 35 0 11 0;
#X connect 36 0 7 0;
#X connect 37 0 32 0;
#X connect 38 0 4 0;
#X connect 38 1 26 1;
#X connect 39 0 40 0;
#X connect 40 0 16 0;
#X connect 40 0 17 0;
#X connect 40 1 15 1;
#X connect 40 1 14 1;
#X connect 43 8 45 0;
#X connect 43 9 18 0;
#X connect 44 0 43 0;
#X connect 45 0 36 0;
#X connect 45 0 13 0;
#X coords 0 0 160 160 160 160 2 0 0;
